<mxfile host="app.diagrams.net" modified="2022-11-27T03:56:08.477Z" agent="5.0 (Macintosh; Intel Mac OS X 10_15_7) AppleWebKit/537.36 (KHTML, like Gecko) Chrome/107.0.0.0 Safari/537.36" etag="IR9UTJr4Y-vJiCVY-I6g" version="20.6.0" type="github">
  <diagram id="C5RBs43oDa-KdzZeNtuy" name="Page-1">
    <mxGraphModel dx="786" dy="415" grid="1" gridSize="10" guides="1" tooltips="1" connect="1" arrows="1" fold="1" page="1" pageScale="1" pageWidth="827" pageHeight="1169" math="0" shadow="0">
      <root>
        <mxCell id="WIyWlLk6GJQsqaUBKTNV-0" />
        <mxCell id="WIyWlLk6GJQsqaUBKTNV-1" parent="WIyWlLk6GJQsqaUBKTNV-0" />
        <mxCell id="XRNUqZ6zOeoWbKb_Kqdh-3" style="edgeStyle=orthogonalEdgeStyle;rounded=0;orthogonalLoop=1;jettySize=auto;html=1;exitX=1;exitY=0.5;exitDx=0;exitDy=0;entryX=0;entryY=0.5;entryDx=0;entryDy=0;" edge="1" parent="WIyWlLk6GJQsqaUBKTNV-1" source="WIyWlLk6GJQsqaUBKTNV-3" target="XRNUqZ6zOeoWbKb_Kqdh-0">
          <mxGeometry relative="1" as="geometry" />
        </mxCell>
        <mxCell id="XRNUqZ6zOeoWbKb_Kqdh-8" style="edgeStyle=orthogonalEdgeStyle;rounded=0;orthogonalLoop=1;jettySize=auto;html=1;exitX=0.5;exitY=1;exitDx=0;exitDy=0;entryX=0.5;entryY=0;entryDx=0;entryDy=0;" edge="1" parent="WIyWlLk6GJQsqaUBKTNV-1" source="WIyWlLk6GJQsqaUBKTNV-3" target="XRNUqZ6zOeoWbKb_Kqdh-6">
          <mxGeometry relative="1" as="geometry" />
        </mxCell>
        <mxCell id="WIyWlLk6GJQsqaUBKTNV-3" value="查看数据" style="rounded=1;whiteSpace=wrap;html=1;fontSize=12;glass=0;strokeWidth=1;shadow=0;" parent="WIyWlLk6GJQsqaUBKTNV-1" vertex="1">
          <mxGeometry x="120" y="70" width="120" height="40" as="geometry" />
        </mxCell>
        <mxCell id="WIyWlLk6GJQsqaUBKTNV-6" value="Lamp&lt;br&gt;plugged in?" style="rhombus;whiteSpace=wrap;html=1;shadow=0;fontFamily=Helvetica;fontSize=12;align=center;strokeWidth=1;spacing=6;spacingTop=-4;" parent="WIyWlLk6GJQsqaUBKTNV-1" vertex="1">
          <mxGeometry x="630" y="200" width="100" height="80" as="geometry" />
        </mxCell>
        <mxCell id="XRNUqZ6zOeoWbKb_Kqdh-4" style="edgeStyle=orthogonalEdgeStyle;rounded=0;orthogonalLoop=1;jettySize=auto;html=1;exitX=1;exitY=0.5;exitDx=0;exitDy=0;entryX=0;entryY=0.5;entryDx=0;entryDy=0;" edge="1" parent="WIyWlLk6GJQsqaUBKTNV-1" source="XRNUqZ6zOeoWbKb_Kqdh-0" target="XRNUqZ6zOeoWbKb_Kqdh-1">
          <mxGeometry relative="1" as="geometry" />
        </mxCell>
        <mxCell id="XRNUqZ6zOeoWbKb_Kqdh-5" style="edgeStyle=orthogonalEdgeStyle;rounded=0;orthogonalLoop=1;jettySize=auto;html=1;exitX=1;exitY=0.5;exitDx=0;exitDy=0;entryX=0;entryY=0.5;entryDx=0;entryDy=0;" edge="1" parent="WIyWlLk6GJQsqaUBKTNV-1" source="XRNUqZ6zOeoWbKb_Kqdh-0" target="XRNUqZ6zOeoWbKb_Kqdh-2">
          <mxGeometry relative="1" as="geometry" />
        </mxCell>
        <mxCell id="XRNUqZ6zOeoWbKb_Kqdh-0" value="视频播放量和转化率" style="rounded=1;whiteSpace=wrap;html=1;fontSize=12;glass=0;strokeWidth=1;shadow=0;" vertex="1" parent="WIyWlLk6GJQsqaUBKTNV-1">
          <mxGeometry x="294" y="70" width="120" height="40" as="geometry" />
        </mxCell>
        <mxCell id="XRNUqZ6zOeoWbKb_Kqdh-1" value="优化点" style="rounded=1;whiteSpace=wrap;html=1;fontSize=12;glass=0;strokeWidth=1;shadow=0;" vertex="1" parent="WIyWlLk6GJQsqaUBKTNV-1">
          <mxGeometry x="510" y="40" width="120" height="40" as="geometry" />
        </mxCell>
        <mxCell id="XRNUqZ6zOeoWbKb_Kqdh-2" value="有效的点" style="rounded=1;whiteSpace=wrap;html=1;fontSize=12;glass=0;strokeWidth=1;shadow=0;" vertex="1" parent="WIyWlLk6GJQsqaUBKTNV-1">
          <mxGeometry x="510" y="100" width="120" height="40" as="geometry" />
        </mxCell>
        <mxCell id="XRNUqZ6zOeoWbKb_Kqdh-9" style="edgeStyle=orthogonalEdgeStyle;rounded=0;orthogonalLoop=1;jettySize=auto;html=1;exitX=1;exitY=0.5;exitDx=0;exitDy=0;entryX=0;entryY=0.5;entryDx=0;entryDy=0;" edge="1" parent="WIyWlLk6GJQsqaUBKTNV-1" source="XRNUqZ6zOeoWbKb_Kqdh-6" target="XRNUqZ6zOeoWbKb_Kqdh-7">
          <mxGeometry relative="1" as="geometry" />
        </mxCell>
        <mxCell id="XRNUqZ6zOeoWbKb_Kqdh-14" style="edgeStyle=orthogonalEdgeStyle;rounded=0;orthogonalLoop=1;jettySize=auto;html=1;exitX=0.5;exitY=1;exitDx=0;exitDy=0;" edge="1" parent="WIyWlLk6GJQsqaUBKTNV-1" source="XRNUqZ6zOeoWbKb_Kqdh-6" target="XRNUqZ6zOeoWbKb_Kqdh-10">
          <mxGeometry relative="1" as="geometry" />
        </mxCell>
        <mxCell id="XRNUqZ6zOeoWbKb_Kqdh-19" style="edgeStyle=orthogonalEdgeStyle;rounded=0;orthogonalLoop=1;jettySize=auto;html=1;exitX=1;exitY=0.5;exitDx=0;exitDy=0;entryX=0;entryY=0.5;entryDx=0;entryDy=0;" edge="1" parent="WIyWlLk6GJQsqaUBKTNV-1" source="XRNUqZ6zOeoWbKb_Kqdh-6" target="XRNUqZ6zOeoWbKb_Kqdh-18">
          <mxGeometry relative="1" as="geometry" />
        </mxCell>
        <mxCell id="XRNUqZ6zOeoWbKb_Kqdh-6" value="查看热点" style="rounded=1;whiteSpace=wrap;html=1;fontSize=12;glass=0;strokeWidth=1;shadow=0;" vertex="1" parent="WIyWlLk6GJQsqaUBKTNV-1">
          <mxGeometry x="120" y="230" width="120" height="40" as="geometry" />
        </mxCell>
        <mxCell id="XRNUqZ6zOeoWbKb_Kqdh-23" style="edgeStyle=orthogonalEdgeStyle;rounded=0;orthogonalLoop=1;jettySize=auto;html=1;exitX=1;exitY=0.5;exitDx=0;exitDy=0;entryX=0;entryY=0.5;entryDx=0;entryDy=0;" edge="1" parent="WIyWlLk6GJQsqaUBKTNV-1" source="XRNUqZ6zOeoWbKb_Kqdh-7" target="XRNUqZ6zOeoWbKb_Kqdh-22">
          <mxGeometry relative="1" as="geometry" />
        </mxCell>
        <mxCell id="XRNUqZ6zOeoWbKb_Kqdh-7" value="查看橱窗商品佣金" style="rounded=1;whiteSpace=wrap;html=1;fontSize=12;glass=0;strokeWidth=1;shadow=0;" vertex="1" parent="WIyWlLk6GJQsqaUBKTNV-1">
          <mxGeometry x="300" y="190" width="120" height="40" as="geometry" />
        </mxCell>
        <mxCell id="XRNUqZ6zOeoWbKb_Kqdh-15" style="edgeStyle=orthogonalEdgeStyle;rounded=0;orthogonalLoop=1;jettySize=auto;html=1;exitX=0.5;exitY=1;exitDx=0;exitDy=0;entryX=0.5;entryY=0;entryDx=0;entryDy=0;" edge="1" parent="WIyWlLk6GJQsqaUBKTNV-1" source="XRNUqZ6zOeoWbKb_Kqdh-10" target="XRNUqZ6zOeoWbKb_Kqdh-11">
          <mxGeometry relative="1" as="geometry" />
        </mxCell>
        <mxCell id="XRNUqZ6zOeoWbKb_Kqdh-10" value="确定清单体内容" style="rounded=1;whiteSpace=wrap;html=1;fontSize=12;glass=0;strokeWidth=1;shadow=0;" vertex="1" parent="WIyWlLk6GJQsqaUBKTNV-1">
          <mxGeometry x="120" y="350" width="120" height="40" as="geometry" />
        </mxCell>
        <mxCell id="XRNUqZ6zOeoWbKb_Kqdh-16" style="edgeStyle=orthogonalEdgeStyle;rounded=0;orthogonalLoop=1;jettySize=auto;html=1;exitX=0.5;exitY=1;exitDx=0;exitDy=0;entryX=0.5;entryY=0;entryDx=0;entryDy=0;" edge="1" parent="WIyWlLk6GJQsqaUBKTNV-1" source="XRNUqZ6zOeoWbKb_Kqdh-11" target="XRNUqZ6zOeoWbKb_Kqdh-12">
          <mxGeometry relative="1" as="geometry" />
        </mxCell>
        <mxCell id="XRNUqZ6zOeoWbKb_Kqdh-11" value="确定带货视频内容" style="rounded=1;whiteSpace=wrap;html=1;fontSize=12;glass=0;strokeWidth=1;shadow=0;" vertex="1" parent="WIyWlLk6GJQsqaUBKTNV-1">
          <mxGeometry x="120" y="450" width="120" height="40" as="geometry" />
        </mxCell>
        <mxCell id="XRNUqZ6zOeoWbKb_Kqdh-17" style="edgeStyle=orthogonalEdgeStyle;rounded=0;orthogonalLoop=1;jettySize=auto;html=1;exitX=0.5;exitY=1;exitDx=0;exitDy=0;entryX=0.5;entryY=0;entryDx=0;entryDy=0;" edge="1" parent="WIyWlLk6GJQsqaUBKTNV-1" source="XRNUqZ6zOeoWbKb_Kqdh-12" target="XRNUqZ6zOeoWbKb_Kqdh-13">
          <mxGeometry relative="1" as="geometry" />
        </mxCell>
        <mxCell id="XRNUqZ6zOeoWbKb_Kqdh-12" value="计划发布带货视频的标题、标签、封面" style="rounded=1;whiteSpace=wrap;html=1;fontSize=12;glass=0;strokeWidth=1;shadow=0;" vertex="1" parent="WIyWlLk6GJQsqaUBKTNV-1">
          <mxGeometry x="120" y="565" width="120" height="40" as="geometry" />
        </mxCell>
        <mxCell id="XRNUqZ6zOeoWbKb_Kqdh-13" value="无聊时看看效果，回复评论" style="rounded=1;whiteSpace=wrap;html=1;fontSize=12;glass=0;strokeWidth=1;shadow=0;" vertex="1" parent="WIyWlLk6GJQsqaUBKTNV-1">
          <mxGeometry x="120" y="690" width="120" height="40" as="geometry" />
        </mxCell>
        <mxCell id="XRNUqZ6zOeoWbKb_Kqdh-21" style="edgeStyle=orthogonalEdgeStyle;rounded=0;orthogonalLoop=1;jettySize=auto;html=1;exitX=1;exitY=0.5;exitDx=0;exitDy=0;entryX=0;entryY=0.5;entryDx=0;entryDy=0;" edge="1" parent="WIyWlLk6GJQsqaUBKTNV-1" source="XRNUqZ6zOeoWbKb_Kqdh-18" target="XRNUqZ6zOeoWbKb_Kqdh-20">
          <mxGeometry relative="1" as="geometry" />
        </mxCell>
        <mxCell id="XRNUqZ6zOeoWbKb_Kqdh-18" value="查看抖音后台热点" style="rounded=1;whiteSpace=wrap;html=1;fontSize=12;glass=0;strokeWidth=1;shadow=0;" vertex="1" parent="WIyWlLk6GJQsqaUBKTNV-1">
          <mxGeometry x="300" y="260" width="120" height="40" as="geometry" />
        </mxCell>
        <mxCell id="XRNUqZ6zOeoWbKb_Kqdh-20" value="查看别人是如何拍摄的" style="rounded=1;whiteSpace=wrap;html=1;fontSize=12;glass=0;strokeWidth=1;shadow=0;" vertex="1" parent="WIyWlLk6GJQsqaUBKTNV-1">
          <mxGeometry x="470" y="260" width="120" height="40" as="geometry" />
        </mxCell>
        <mxCell id="XRNUqZ6zOeoWbKb_Kqdh-22" value="决定是否继续做（与平台有关）" style="rounded=1;whiteSpace=wrap;html=1;fontSize=12;glass=0;strokeWidth=1;shadow=0;" vertex="1" parent="WIyWlLk6GJQsqaUBKTNV-1">
          <mxGeometry x="470" y="190" width="120" height="40" as="geometry" />
        </mxCell>
      </root>
    </mxGraphModel>
  </diagram>
</mxfile>
